<?xml version="1.0" encoding="UTF-8" standalone="no"?>
<!-- Created with Inkscape (http://www.inkscape.org/) -->

<svg
   width="297mm"
   height="210mm"
   viewBox="0 0 297 210"
   version="1.1"
   id="svg1"
   inkscape:version="1.4.3 (0d15f75, 2025-12-25)"
   sodipodi:docname="source.svg"
   xmlns:inkscape="http://www.inkscape.org/namespaces/inkscape"
   xmlns:sodipodi="http://sodipodi.sourceforge.net/DTD/sodipodi-0.dtd"
   xmlns="http://www.w3.org/2000/svg"
   xmlns:svg="http://www.w3.org/2000/svg">
  <sodipodi:namedview
     id="namedview1"
     pagecolor="#ffffff"
     bordercolor="#000000"
     borderopacity="0.25"
     inkscape:showpageshadow="2"
     inkscape:pageopacity="0.0"
     inkscape:pagecheckerboard="false"
     inkscape:deskcolor="#d1d1d1"
     inkscape:document-units="px"
     showgrid="true"
     inkscape:zoom="0.74742565"
     inkscape:cx="398.0329"
     inkscape:cy="-113.05472"
     inkscape:current-layer="layer1">
    <inkscape:grid
       id="grid1"
       units="mm"
       originx="0"
       originy="0"
       spacingx="0.26458334"
       spacingy="0.26458333"
       empcolor="#0099e5"
       empopacity="0.30196078"
       color="#0099e5"
       opacity="0.14901961"
       empspacing="5"
       enabled="true"
       visible="true" />
  </sodipodi:namedview>
  <defs
     id="defs1">
    <filter
       style="color-interpolation-filters:sRGB;"
       inkscape:label="Invert"
       id="filter5"
       x="0"
       y="0"
       width="1"
       height="1">
      <feColorMatrix
         type="hueRotate"
         values="180"
         result="color1"
         id="feColorMatrix4" />
      <feColorMatrix
         values="-1 0 0 0 1 0 -1 0 0 1 0 0 -1 0 1 -0.21 -0.72 -0.07 2 0 "
         result="color2"
         id="feColorMatrix5" />
    </filter>
    <filter
       style="color-interpolation-filters:sRGB;"
       inkscape:label="Invert"
       id="filter15"
       x="0"
       y="0"
       width="1"
       height="1">
      <feColorMatrix
         type="hueRotate"
         values="180"
         result="color1"
         id="feColorMatrix14" />
      <feColorMatrix
         values="-1 0 0 0 1 0 -1 0 0 1 0 0 -1 0 1 -0.21 -0.72 -0.07 2 0 "
         result="color2"
         id="feColorMatrix15" />
    </filter>
    <filter
       style="color-interpolation-filters:sRGB;"
       inkscape:label="Invert"
       id="filter19"
       x="0"
       y="0"
       width="1"
       height="1">
      <feColorMatrix
         type="hueRotate"
         values="180"
         result="color1"
         id="feColorMatrix18" />
      <feColorMatrix
         values="-1 0 0 0 1 0 -1 0 0 1 0 0 -1 0 1 -0.21 -0.72 -0.07 2 0 "
         result="color2"
         id="feColorMatrix19" />
    </filter>
    <filter
       style="color-interpolation-filters:sRGB;"
       inkscape:label="Invert"
       id="filter23"
       x="-0.022418881"
       y="-0.060040083"
       width="1.0534932"
       height="1.1200802">
      <feColorMatrix
         type="hueRotate"
         values="180"
         result="color1"
         id="feColorMatrix22" />
      <feColorMatrix
         values="-1 0 0 0 1 0 -1 0 0 1 0 0 -1 0 1 -0.21 -0.72 -0.07 2 0 "
         result="color2"
         id="feColorMatrix23" />
    </filter>
  </defs>
  <g
     inkscape:label="Layer 1"
     inkscape:groupmode="layer"
     id="layer1">
    <g
       id="g8"
       transform="matrix(1.0666666,0,0,1.0666666,159.56295,3.3611602)"
       style="stroke-width:0.9375;filter:url(#filter23)"
       inkscape:export-filename="record.png"
       inkscape:export-xdpi="96.000015"
       inkscape:export-ydpi="96.000015"
       inkscape:label="record">
      <path
         style="font-weight:bold;font-size:26.3912px;line-height:35.1887px;font-family:'Segoe Print';-inkscape-font-specification:'Segoe Print Bold';text-align:center;baseline-shift:baseline;text-anchor:middle;display:inline;overflow:visible;opacity:1;fill:#ff0000;fill-opacity:1;stroke:#ff0000;stroke-width:1.24023;stroke-linecap:round;stroke-dasharray:none;stroke-opacity:1;filter:url(#filter23);enable-background:accumulate;stop-color:#000000;stop-opacity:1"
         d="m 9.2458524,59.06725 q -2.1777894,0 -3.8658983,-2.087586 -1.6881089,-2.100471 -1.6881089,-4.329806 0,-2.62881 1.6107909,-5.901938 1.610791,-3.273127 4.1493976,-5.347826 2.5514933,-2.074698 5.3220533,-2.074698 2.152017,0 3.54374,0.515453 1.40461,0.515453 2.577266,1.520586 1.185542,0.992248 1.572132,2.061813 0.399476,1.056679 0.399476,2.91231 0,1.636563 -1.056679,3.981875 -1.043793,2.332425 -3.05406,4.407124 -1.997381,2.074699 -4.072079,3.208696 -2.074699,1.133997 -5.4380306,1.133997 z M 6.9520861,52.533881 q 0,1.585019 0.9407019,2.641698 0.9407019,1.056678 2.164903,1.056678 3.453536,0 6.481823,-3.311786 3.028287,-3.324672 3.028287,-7.048821 0,-1.314405 -0.502567,-2.113358 -0.502567,-0.811838 -1.713881,-1.340178 -1.198429,-0.541226 -2.577266,-0.541226 -2.487061,0 -5.1545311,3.595286 -2.6674698,3.595285 -2.6674698,7.061707 z M 37.71175,47.701509 q 2.409743,0.850497 3.118491,2.036039 0.721634,1.185542 0.721634,2.332426 0,2.461288 -3.15715,5.064326 -3.15715,2.590152 -6.623572,2.590152 -1.93295,0 -1.93295,-1.172656 0,-1.932949 2.693243,-1.932949 h 0.63143 q 1.26286,0 3.182923,-1.456155 1.920063,-1.469041 1.920063,-2.976741 0,-0.91493 -0.786066,-1.623678 -0.786066,-0.721634 -2.100472,-0.721634 -0.10309,0 -1.01802,0.399476 -0.927815,0.399476 -1.36595,0.399476 -1.211315,0 -1.585019,-0.296385 -0.360817,-0.296386 -0.360817,-1.198429 0,-0.63143 2.628811,-1.700995 1.494814,-0.592771 2.989628,-2.023153 1.494814,-1.443269 1.494814,-2.435516 0,-1.275747 -1.855631,-1.275747 -1.739654,0 -3.414877,0.38659 -1.675223,0.38659 -1.855631,0.953588 -0.180409,0.566999 -0.953588,5.901938 -0.77318,5.33494 -0.77318,6.159665 l -0.128863,1.739654 q -0.103091,1.314406 -0.605658,1.688109 -0.502566,0.38659 -1.146883,0.38659 -1.726768,0 -1.726768,-2.229335 0,-0.347931 0.219068,-1.249974 0.566998,-2.332425 1.095338,-6.494709 0.541225,-4.162284 0.541225,-4.484442 0,-0.644316 -0.257726,-0.644316 l -0.347931,0.02577 q -0.38659,0.03866 -0.682975,-0.231954 -0.296386,-0.2835 -0.38659,-0.52834 -0.0902,-0.24484 -0.0902,-0.451021 0,-1.275747 3.582399,-2.42263 3.582399,-1.146883 7.525615,-1.146883 2.100471,0 3.401991,1.12111 1.314405,1.108225 1.314405,2.577266 0,1.056679 -0.837611,2.152017 -0.837612,1.082451 -3.066946,2.783447 z m 18.814035,-3.376218 q 0,-1.275747 -0.657202,-1.765427 -0.657203,-0.502567 -1.93295,-0.502567 -2.177789,0 -4.046306,1.069565 -1.855632,1.056679 -1.855632,2.332426 0,0.811838 0.695862,1.391723 0.708748,0.566998 3.633944,1.417496 3.066946,0.889157 4.548874,1.958722 1.494814,1.056679 1.494814,2.551493 0,2.487061 -3.78858,4.56176 -3.788581,2.061812 -7.873546,2.061812 -1.327292,0 -2.126244,-0.554112 -0.798953,-0.554112 -0.798953,-1.365951 0,-0.644316 0.360817,-1.198428 0.360818,-0.554112 0.863384,-0.554112 0.309272,0 0.566999,0.10309 1.353064,0.579885 2.52572,0.579885 2.010267,0 4.510215,-1.12111 2.512834,-1.133997 2.512834,-2.216449 0,-0.451021 -0.63143,-0.863384 -0.618544,-0.425249 -2.538607,-1.056679 -2.796333,-0.914929 -4.213829,-1.5077 -1.40461,-0.592771 -2.139131,-1.546359 -0.721634,-0.966475 -0.721634,-2.319539 0,-2.409744 2.809219,-4.484442 2.80922,-2.074699 6.5978,-2.074699 2.17779,0 3.427763,0.863384 1.262861,0.863384 1.262861,1.971608 0,2.267994 -2.487062,2.267994 z"
         id="path6"
         transform="matrix(0.92394421,-0.2475701,0.2705791,1.009815,-6.8544935e-7,0)" />
      <text
         xml:space="preserve"
         style="font-weight:bold;font-size:26.3912px;line-height:35.1887px;font-family:'Noto Sans CJK JP';-inkscape-font-specification:'Noto Sans CJK JP Bold';text-align:center;writing-mode:lr-tb;direction:ltr;text-anchor:middle;display:inline;opacity:1;fill:#ff0000;fill-opacity:1;stroke:#ff0000;stroke-width:2.48047;stroke-linecap:round;stroke-dasharray:none;stroke-opacity:1;filter:url(#filter23)"
         x="31.036633"
         y="58.178093"
         id="text7"
         transform="matrix(0.92394421,-0.2475701,0.2705791,1.009815,-6.8544935e-7,0)"><tspan
           sodipodi:role="line"
           id="tspan7"
           style="font-style:normal;font-variant:normal;font-weight:bold;font-stretch:normal;font-family:'Segoe Print';-inkscape-font-specification:'Segoe Print Bold';fill:#ff0000;fill-opacity:1;stroke:#ff0000;stroke-width:2.48047;stroke-opacity:1"
           x="31.036631"
           y="58.178093">OBS</tspan></text>
      <path
         id="path5"
         style="baseline-shift:baseline;display:inline;overflow:visible;opacity:1;fill:#ff0000;fill-opacity:1;stroke:#ff0000;stroke-width:1.98438;stroke-linecap:round;stroke-dasharray:none;stroke-opacity:1;filter:url(#filter23);enable-background:accumulate;stop-color:#000000;stop-opacity:1"
         d="m 42.334176,15.953161 c -13.187039,0 -24.134061,9.707288 -26.075342,22.356679 0.221823,-0.404195 0.458393,-0.797981 0.709071,-1.180645 l 0.0029,-0.0029 4.88e-4,-0.0048 c 0.833785,-1.265826 1.845461,-2.365518 2.999014,-3.220249 3.403649,-9.03894 12.124659,-15.457876 22.363837,-15.457876 5.531891,0 10.620152,1.873861 14.666189,5.021981 0.834382,-0.431892 1.716834,-0.7789 2.635437,-1.036274 -4.633867,-4.032484 -10.685595,-6.475865 -17.301626,-6.475865 z m 23.218533,19.605878 c 0.01246,0.0057 0.02904,0.02107 0.04105,0.02568 0.01324,0.0053 0.0238,0.0014 0.03714,0.0068 z m 2.638859,12.022523 c -1.016197,0.996764 -2.113461,1.863041 -3.279515,2.587052 -3.237655,9.352106 -12.114238,16.054253 -22.577877,16.054253 -5.834042,0 -11.175526,-2.083519 -15.321017,-5.548111 -0.47768,0.170179 -0.970403,0.321652 -1.476783,0.457336 -0.484582,0.129844 -0.979384,0.199792 -1.477761,0.216072 4.743356,4.560553 11.185658,7.366799 18.275561,7.366799 12.758641,0 23.419986,-9.086801 25.857392,-21.133401 z" />
      <rect
         style="fill:#ffffff;fill-opacity:0;stroke:none;stroke-width:1.24023;stroke-linecap:round;stroke-dasharray:none;stroke-opacity:1;filter:url(#filter23)"
         id="rect5"
         width="63.500004"
         height="63.5"
         x="10.583333"
         y="10.583333" />
    </g>
    <g
       id="g10"
       transform="matrix(1.0666666,0,0,1.0666666,0.81295104,3.3611602)"
       style="stroke-width:0.9375;filter:url(#filter23)"
       inkscape:export-filename="light.png"
       inkscape:export-xdpi="96.000015"
       inkscape:export-ydpi="96.000015"
       inkscape:label="light">
      <path
         style="font-weight:bold;font-size:26.3912px;line-height:35.1887px;font-family:'Segoe Print';-inkscape-font-specification:'Segoe Print Bold';text-align:center;baseline-shift:baseline;text-anchor:middle;display:inline;overflow:visible;opacity:1;fill:#000000;fill-opacity:1;stroke:#000000;stroke-width:1.24023;stroke-linecap:round;stroke-dasharray:none;stroke-opacity:1;filter:url(#filter23);enable-background:accumulate;stop-color:#000000;stop-opacity:1"
         d="m 9.2458524,59.06725 q -2.1777894,0 -3.8658983,-2.087586 -1.6881089,-2.100471 -1.6881089,-4.329806 0,-2.62881 1.6107909,-5.901938 1.610791,-3.273127 4.1493976,-5.347826 2.5514933,-2.074698 5.3220533,-2.074698 2.152017,0 3.54374,0.515453 1.40461,0.515453 2.577266,1.520586 1.185542,0.992248 1.572132,2.061813 0.399476,1.056679 0.399476,2.91231 0,1.636563 -1.056679,3.981875 -1.043793,2.332425 -3.05406,4.407124 -1.997381,2.074699 -4.072079,3.208696 -2.074699,1.133997 -5.4380306,1.133997 z M 6.9520861,52.533881 q 0,1.585019 0.9407019,2.641698 0.9407019,1.056678 2.164903,1.056678 3.453536,0 6.481823,-3.311786 3.028287,-3.324672 3.028287,-7.048821 0,-1.314405 -0.502567,-2.113358 -0.502567,-0.811838 -1.713881,-1.340178 -1.198429,-0.541226 -2.577266,-0.541226 -2.487061,0 -5.1545311,3.595286 -2.6674698,3.595285 -2.6674698,7.061707 z M 37.71175,47.701509 q 2.409743,0.850497 3.118491,2.036039 0.721634,1.185542 0.721634,2.332426 0,2.461288 -3.15715,5.064326 -3.15715,2.590152 -6.623572,2.590152 -1.93295,0 -1.93295,-1.172656 0,-1.932949 2.693243,-1.932949 h 0.63143 q 1.26286,0 3.182923,-1.456155 1.920063,-1.469041 1.920063,-2.976741 0,-0.91493 -0.786066,-1.623678 -0.786066,-0.721634 -2.100472,-0.721634 -0.10309,0 -1.01802,0.399476 -0.927815,0.399476 -1.36595,0.399476 -1.211315,0 -1.585019,-0.296385 -0.360817,-0.296386 -0.360817,-1.198429 0,-0.63143 2.628811,-1.700995 1.494814,-0.592771 2.989628,-2.023153 1.494814,-1.443269 1.494814,-2.435516 0,-1.275747 -1.855631,-1.275747 -1.739654,0 -3.414877,0.38659 -1.675223,0.38659 -1.855631,0.953588 -0.180409,0.566999 -0.953588,5.901938 -0.77318,5.33494 -0.77318,6.159665 l -0.128863,1.739654 q -0.103091,1.314406 -0.605658,1.688109 -0.502566,0.38659 -1.146883,0.38659 -1.726768,0 -1.726768,-2.229335 0,-0.347931 0.219068,-1.249974 0.566998,-2.332425 1.095338,-6.494709 0.541225,-4.162284 0.541225,-4.484442 0,-0.644316 -0.257726,-0.644316 l -0.347931,0.02577 q -0.38659,0.03866 -0.682975,-0.231954 -0.296386,-0.2835 -0.38659,-0.52834 -0.0902,-0.24484 -0.0902,-0.451021 0,-1.275747 3.582399,-2.42263 3.582399,-1.146883 7.525615,-1.146883 2.100471,0 3.401991,1.12111 1.314405,1.108225 1.314405,2.577266 0,1.056679 -0.837611,2.152017 -0.837612,1.082451 -3.066946,2.783447 z m 18.814035,-3.376218 q 0,-1.275747 -0.657202,-1.765427 -0.657203,-0.502567 -1.93295,-0.502567 -2.177789,0 -4.046306,1.069565 -1.855632,1.056679 -1.855632,2.332426 0,0.811838 0.695862,1.391723 0.708748,0.566998 3.633944,1.417496 3.066946,0.889157 4.548874,1.958722 1.494814,1.056679 1.494814,2.551493 0,2.487061 -3.78858,4.56176 -3.788581,2.061812 -7.873546,2.061812 -1.327292,0 -2.126244,-0.554112 -0.798953,-0.554112 -0.798953,-1.365951 0,-0.644316 0.360817,-1.198428 0.360818,-0.554112 0.863384,-0.554112 0.309272,0 0.566999,0.10309 1.353064,0.579885 2.52572,0.579885 2.010267,0 4.510215,-1.12111 2.512834,-1.133997 2.512834,-2.216449 0,-0.451021 -0.63143,-0.863384 -0.618544,-0.425249 -2.538607,-1.056679 -2.796333,-0.914929 -4.213829,-1.5077 -1.40461,-0.592771 -2.139131,-1.546359 -0.721634,-0.966475 -0.721634,-2.319539 0,-2.409744 2.809219,-4.484442 2.80922,-2.074699 6.5978,-2.074699 2.17779,0 3.427763,0.863384 1.262861,0.863384 1.262861,1.971608 0,2.267994 -2.487062,2.267994 z"
         id="path9"
         transform="matrix(0.92394421,-0.2475701,0.2705791,1.009815,-6.8544935e-7,0)" />
      <text
         xml:space="preserve"
         style="font-weight:bold;font-size:26.3912px;line-height:35.1887px;font-family:'Noto Sans CJK JP';-inkscape-font-specification:'Noto Sans CJK JP Bold';text-align:center;writing-mode:lr-tb;direction:ltr;text-anchor:middle;display:inline;opacity:1;fill:#000000;fill-opacity:1;stroke:#000000;stroke-width:2.48047;stroke-linecap:round;stroke-dasharray:none;stroke-opacity:1;filter:url(#filter23)"
         x="31.036633"
         y="58.178093"
         id="text9"
         transform="matrix(0.92394421,-0.2475701,0.2705791,1.009815,-6.8544935e-7,0)"><tspan
           sodipodi:role="line"
           id="tspan9"
           style="font-style:normal;font-variant:normal;font-weight:bold;font-stretch:normal;font-family:'Segoe Print';-inkscape-font-specification:'Segoe Print Bold';fill:#000000;fill-opacity:1;stroke:#000000;stroke-width:2.48047;stroke-opacity:1"
           x="31.036631"
           y="58.178093">OBS</tspan></text>
      <path
         id="path10"
         style="baseline-shift:baseline;display:inline;overflow:visible;opacity:1;fill:#000000;fill-opacity:1;stroke:#000000;stroke-width:1.98438;stroke-linecap:round;stroke-dasharray:none;stroke-opacity:1;filter:url(#filter23);enable-background:accumulate;stop-color:#000000;stop-opacity:1"
         d="m 42.334176,15.953161 c -13.187039,0 -24.134061,9.707288 -26.075342,22.356679 0.221823,-0.404195 0.458393,-0.797981 0.709071,-1.180645 l 0.0029,-0.0029 4.88e-4,-0.0048 c 0.833785,-1.265826 1.845461,-2.365518 2.999014,-3.220249 3.403649,-9.03894 12.124659,-15.457876 22.363837,-15.457876 5.531891,0 10.620152,1.873861 14.666189,5.021981 0.834382,-0.431892 1.716834,-0.7789 2.635437,-1.036274 -4.633867,-4.032484 -10.685595,-6.475865 -17.301626,-6.475865 z m 23.218533,19.605878 c 0.01246,0.0057 0.02904,0.02107 0.04105,0.02568 0.01324,0.0053 0.0238,0.0014 0.03714,0.0068 z m 2.638859,12.022523 c -1.016197,0.996764 -2.113461,1.863041 -3.279515,2.587052 -3.237655,9.352106 -12.114238,16.054253 -22.577877,16.054253 -5.834042,0 -11.175526,-2.083519 -15.321017,-5.548111 -0.47768,0.170179 -0.970403,0.321652 -1.476783,0.457336 -0.484582,0.129844 -0.979384,0.199792 -1.477761,0.216072 4.743356,4.560553 11.185658,7.366799 18.275561,7.366799 12.758641,0 23.419986,-9.086801 25.857392,-21.133401 z" />
      <rect
         style="fill:#ffffff;fill-opacity:0;stroke:none;stroke-width:1.24023;stroke-linecap:round;stroke-dasharray:none;stroke-opacity:1;filter:url(#filter23)"
         id="rect10"
         width="63.500004"
         height="63.5"
         x="10.583333"
         y="10.583333" />
    </g>
    <g
       id="g12"
       transform="matrix(1.0666666,0,0,1.0666666,80.187951,3.3611602)"
       style="stroke-width:0.9375;filter:url(#filter23)"
       inkscape:export-filename="dark.png"
       inkscape:export-xdpi="96.000015"
       inkscape:export-ydpi="96.000015"
       inkscape:label="dark">
      <path
         style="font-weight:bold;font-size:26.3912px;line-height:35.1887px;font-family:'Segoe Print';-inkscape-font-specification:'Segoe Print Bold';text-align:center;baseline-shift:baseline;text-anchor:middle;display:inline;overflow:visible;opacity:1;fill:#ffffff;fill-opacity:1;stroke:#ffffff;stroke-width:1.24023;stroke-linecap:round;stroke-dasharray:none;stroke-opacity:1;filter:url(#filter23);enable-background:accumulate;stop-color:#000000;stop-opacity:1"
         d="m 9.2458524,59.06725 q -2.1777894,0 -3.8658983,-2.087586 -1.6881089,-2.100471 -1.6881089,-4.329806 0,-2.62881 1.6107909,-5.901938 1.610791,-3.273127 4.1493976,-5.347826 2.5514933,-2.074698 5.3220533,-2.074698 2.152017,0 3.54374,0.515453 1.40461,0.515453 2.577266,1.520586 1.185542,0.992248 1.572132,2.061813 0.399476,1.056679 0.399476,2.91231 0,1.636563 -1.056679,3.981875 -1.043793,2.332425 -3.05406,4.407124 -1.997381,2.074699 -4.072079,3.208696 -2.074699,1.133997 -5.4380306,1.133997 z M 6.9520861,52.533881 q 0,1.585019 0.9407019,2.641698 0.9407019,1.056678 2.164903,1.056678 3.453536,0 6.481823,-3.311786 3.028287,-3.324672 3.028287,-7.048821 0,-1.314405 -0.502567,-2.113358 -0.502567,-0.811838 -1.713881,-1.340178 -1.198429,-0.541226 -2.577266,-0.541226 -2.487061,0 -5.1545311,3.595286 -2.6674698,3.595285 -2.6674698,7.061707 z M 37.71175,47.701509 q 2.409743,0.850497 3.118491,2.036039 0.721634,1.185542 0.721634,2.332426 0,2.461288 -3.15715,5.064326 -3.15715,2.590152 -6.623572,2.590152 -1.93295,0 -1.93295,-1.172656 0,-1.932949 2.693243,-1.932949 h 0.63143 q 1.26286,0 3.182923,-1.456155 1.920063,-1.469041 1.920063,-2.976741 0,-0.91493 -0.786066,-1.623678 -0.786066,-0.721634 -2.100472,-0.721634 -0.10309,0 -1.01802,0.399476 -0.927815,0.399476 -1.36595,0.399476 -1.211315,0 -1.585019,-0.296385 -0.360817,-0.296386 -0.360817,-1.198429 0,-0.63143 2.628811,-1.700995 1.494814,-0.592771 2.989628,-2.023153 1.494814,-1.443269 1.494814,-2.435516 0,-1.275747 -1.855631,-1.275747 -1.739654,0 -3.414877,0.38659 -1.675223,0.38659 -1.855631,0.953588 -0.180409,0.566999 -0.953588,5.901938 -0.77318,5.33494 -0.77318,6.159665 l -0.128863,1.739654 q -0.103091,1.314406 -0.605658,1.688109 -0.502566,0.38659 -1.146883,0.38659 -1.726768,0 -1.726768,-2.229335 0,-0.347931 0.219068,-1.249974 0.566998,-2.332425 1.095338,-6.494709 0.541225,-4.162284 0.541225,-4.484442 0,-0.644316 -0.257726,-0.644316 l -0.347931,0.02577 q -0.38659,0.03866 -0.682975,-0.231954 -0.296386,-0.2835 -0.38659,-0.52834 -0.0902,-0.24484 -0.0902,-0.451021 0,-1.275747 3.582399,-2.42263 3.582399,-1.146883 7.525615,-1.146883 2.100471,0 3.401991,1.12111 1.314405,1.108225 1.314405,2.577266 0,1.056679 -0.837611,2.152017 -0.837612,1.082451 -3.066946,2.783447 z m 18.814035,-3.376218 q 0,-1.275747 -0.657202,-1.765427 -0.657203,-0.502567 -1.93295,-0.502567 -2.177789,0 -4.046306,1.069565 -1.855632,1.056679 -1.855632,2.332426 0,0.811838 0.695862,1.391723 0.708748,0.566998 3.633944,1.417496 3.066946,0.889157 4.548874,1.958722 1.494814,1.056679 1.494814,2.551493 0,2.487061 -3.78858,4.56176 -3.788581,2.061812 -7.873546,2.061812 -1.327292,0 -2.126244,-0.554112 -0.798953,-0.554112 -0.798953,-1.365951 0,-0.644316 0.360817,-1.198428 0.360818,-0.554112 0.863384,-0.554112 0.309272,0 0.566999,0.10309 1.353064,0.579885 2.52572,0.579885 2.010267,0 4.510215,-1.12111 2.512834,-1.133997 2.512834,-2.216449 0,-0.451021 -0.63143,-0.863384 -0.618544,-0.425249 -2.538607,-1.056679 -2.796333,-0.914929 -4.213829,-1.5077 -1.40461,-0.592771 -2.139131,-1.546359 -0.721634,-0.966475 -0.721634,-2.319539 0,-2.409744 2.809219,-4.484442 2.80922,-2.074699 6.5978,-2.074699 2.17779,0 3.427763,0.863384 1.262861,0.863384 1.262861,1.971608 0,2.267994 -2.487062,2.267994 z"
         id="path11"
         transform="matrix(0.92394421,-0.2475701,0.2705791,1.009815,-6.8544935e-7,0)" />
      <text
         xml:space="preserve"
         style="font-weight:bold;font-size:26.3912px;line-height:35.1887px;font-family:'Noto Sans CJK JP';-inkscape-font-specification:'Noto Sans CJK JP Bold';text-align:center;writing-mode:lr-tb;direction:ltr;text-anchor:middle;display:inline;opacity:1;fill:#ffffff;fill-opacity:1;stroke:#ffffff;stroke-width:2.48047;stroke-linecap:round;stroke-dasharray:none;stroke-opacity:1;filter:url(#filter23)"
         x="31.036633"
         y="58.178093"
         id="text11"
         transform="matrix(0.92394421,-0.2475701,0.2705791,1.009815,-6.8544935e-7,0)"><tspan
           sodipodi:role="line"
           id="tspan11"
           style="font-style:normal;font-variant:normal;font-weight:bold;font-stretch:normal;font-family:'Segoe Print';-inkscape-font-specification:'Segoe Print Bold';fill:#ffffff;fill-opacity:1;stroke:#ffffff;stroke-width:2.48047;stroke-opacity:1"
           x="31.036631"
           y="58.178093">OBS</tspan></text>
      <path
         id="path12"
         style="baseline-shift:baseline;display:inline;overflow:visible;opacity:1;fill:#ffffff;fill-opacity:1;stroke:#ffffff;stroke-width:1.98438;stroke-linecap:round;stroke-dasharray:none;stroke-opacity:1;filter:url(#filter23);enable-background:accumulate;stop-color:#000000;stop-opacity:1"
         d="m 42.334176,15.953161 c -13.187039,0 -24.134061,9.707288 -26.075342,22.356679 0.221823,-0.404195 0.458393,-0.797981 0.709071,-1.180645 l 0.0029,-0.0029 4.88e-4,-0.0048 c 0.833785,-1.265826 1.845461,-2.365518 2.999014,-3.220249 3.403649,-9.03894 12.124659,-15.457876 22.363837,-15.457876 5.531891,0 10.620152,1.873861 14.666189,5.021981 0.834382,-0.431892 1.716834,-0.7789 2.635437,-1.036274 -4.633867,-4.032484 -10.685595,-6.475865 -17.301626,-6.475865 z m 23.218533,19.605878 c 0.01246,0.0057 0.02904,0.02107 0.04105,0.02568 0.01324,0.0053 0.0238,0.0014 0.03714,0.0068 z m 2.638859,12.022523 c -1.016197,0.996764 -2.113461,1.863041 -3.279515,2.587052 -3.237655,9.352106 -12.114238,16.054253 -22.577877,16.054253 -5.834042,0 -11.175526,-2.083519 -15.321017,-5.548111 -0.47768,0.170179 -0.970403,0.321652 -1.476783,0.457336 -0.484582,0.129844 -0.979384,0.199792 -1.477761,0.216072 4.743356,4.560553 11.185658,7.366799 18.275561,7.366799 12.758641,0 23.419986,-9.086801 25.857392,-21.133401 z" />
      <rect
         style="fill:#ffffff;fill-opacity:0;stroke:none;stroke-width:1.24023;stroke-linecap:round;stroke-dasharray:none;stroke-opacity:1;filter:url(#filter23)"
         id="rect12"
         width="63.500004"
         height="63.5"
         x="10.583333"
         y="10.583333" />
    </g>
  </g>
</svg>
